<?xml version="1.0" encoding="utf-8"?>
<svg version="1.1" xmlns:xlink="http://www.w3.org/1999/xlink" width="23px" height="20px" xmlns="http://www.w3.org/2000/svg">
  <g transform="matrix(1 0 0 1 -1324 -760 )">
    <path d="M 14.7857142857143 15.6640625  C 14.8969494047619 15.6640625  14.995349702381 15.6206597222222  15.0809151785714 15.5338541666667  L 16.9547991071429 13.6328125  C 17.0403645833333 13.5460069444444  17.0831473214286 13.4461805555556  17.0831473214286 13.3333333333333  C 17.0831473214286 13.2204861111111  17.0403645833333 13.1206597222222  16.9547991071429 13.0338541666667  L 13.9642857142857 10  L 16.9547991071429 6.96614583333333  C 17.0403645833333 6.87934027777778  17.0831473214286 6.77951388888889  17.0831473214286 6.66666666666667  C 17.0831473214286 6.55381944444444  17.0403645833333 6.45399305555555  16.9547991071429 6.3671875  L 15.0809151785714 4.46614583333333  C 14.995349702381 4.37934027777778  14.8969494047619 4.3359375  14.7857142857143 4.3359375  C 14.6744791666667 4.3359375  14.5760788690476 4.37934027777778  14.4905133928571 4.46614583333333  L 11.5 7.5  L 8.50948660714286 4.46614583333333  C 8.42392113095238 4.37934027777778  8.32552083333333 4.3359375  8.21428571428572 4.3359375  C 8.10305059523809 4.3359375  8.00465029761905 4.37934027777778  7.91908482142857 4.46614583333333  L 6.04520089285714 6.3671875  C 5.95963541666667 6.45399305555555  5.91685267857143 6.55381944444444  5.91685267857143 6.66666666666667  C 5.91685267857143 6.77951388888889  5.95963541666667 6.87934027777778  6.04520089285714 6.96614583333333  L 9.03571428571428 10  L 6.04520089285714 13.0338541666667  C 5.95963541666667 13.1206597222222  5.91685267857143 13.2204861111111  5.91685267857143 13.3333333333333  C 5.91685267857143 13.4461805555556  5.95963541666667 13.5460069444444  6.04520089285714 13.6328125  L 7.91908482142857 15.5338541666667  C 8.00465029761905 15.6206597222222  8.10305059523809 15.6640625  8.21428571428572 15.6640625  C 8.32552083333333 15.6640625  8.42392113095238 15.6206597222222  8.50948660714286 15.5338541666667  L 11.5 12.5  L 14.4905133928571 15.5338541666667  C 14.5760788690476 15.6206597222222  14.6744791666667 15.6640625  14.7857142857143 15.6640625  Z M 22.3967633928571 0.611979166666667  C 22.7989211309524 1.01996527777778  23 1.51041666666667  23 2.08333333333333  L 23 17.9166666666667  C 23 18.4895833333333  22.7989211309524 18.9800347222222  22.3967633928571 19.3880208333333  C 21.9946056547619 19.7960069444444  21.5111607142857 20  20.9464285714286 20  L 2.05357142857143 20  C 1.48883928571429 20  1.0053943452381 19.7960069444444  0.603236607142857 19.3880208333333  C 0.201078869047619 18.9800347222222  0 18.4895833333333  0 17.9166666666667  L 0 2.08333333333333  C 0 1.51041666666667  0.201078869047619 1.01996527777778  0.603236607142857 0.611979166666667  C 1.0053943452381 0.203993055555554  1.48883928571429 0  2.05357142857143 0  L 20.9464285714286 0  C 21.5111607142857 0  21.9946056547619 0.203993055555554  22.3967633928571 0.611979166666667  Z " fill-rule="nonzero" fill="#7f7f7f" stroke="none" transform="matrix(1 0 0 1 1324 760 )" />
  </g>
</svg>