<?xml version="1.0" encoding="utf-8"?>
<svg version="1.1" xmlns:xlink="http://www.w3.org/1999/xlink" width="12px" height="12px" viewBox="187 2465.5  12 12" xmlns="http://www.w3.org/2000/svg">
  <path d="M 193 2465.5  C 196.36 2465.5  199 2468.14  199 2471.5  C 199 2474.86  196.36 2477.5  193 2477.5  C 189.64 2477.5  187 2474.86  187 2471.5  C 187 2468.14  189.64 2465.5  193 2465.5  Z " fill-rule="nonzero" fill="#ffffff" stroke="none" />
  <path d="M 193 2466  C 196.08 2466  198.5 2468.42  198.5 2471.5  C 198.5 2474.58  196.08 2477  193 2477  C 189.92 2477  187.5 2474.58  187.5 2471.5  C 187.5 2468.42  189.92 2466  193 2466  Z " stroke-width="1" stroke="#797979" fill="none" />
  <path d="M 193 2474.5  C 191.32 2474.5  190 2473.18  190 2471.5  C 190 2469.82  191.32 2468.5  193 2468.5  C 194.68 2468.5  196 2469.82  196 2471.5  C 196 2473.18  194.68 2474.5  193 2474.5  " fill-rule="nonzero" fill="#797979" stroke="none" />
</svg>