<?xml version="1.0" encoding="utf-8"?>
<svg version="1.1" xmlns:xlink="http://www.w3.org/1999/xlink" width="12px" height="12px" viewBox="326 2465.5  12 12" xmlns="http://www.w3.org/2000/svg">
  <path d="M 332 2465.5  C 335.36 2465.5  338 2468.14  338 2471.5  C 338 2474.86  335.36 2477.5  332 2477.5  C 328.64 2477.5  326 2474.86  326 2471.5  C 326 2468.14  328.64 2465.5  332 2465.5  Z " fill-rule="nonzero" fill="#ffffff" stroke="none" />
  <path d="M 332 2466  C 335.08 2466  337.5 2468.42  337.5 2471.5  C 337.5 2474.58  335.08 2477  332 2477  C 328.92 2477  326.5 2474.58  326.5 2471.5  C 326.5 2468.42  328.92 2466  332 2466  Z " stroke-width="1" stroke="#797979" fill="none" />
  <path d="M 332 2474.5  C 330.32 2474.5  329 2473.18  329 2471.5  C 329 2469.82  330.32 2468.5  332 2468.5  C 333.68 2468.5  335 2469.82  335 2471.5  C 335 2473.18  333.68 2474.5  332 2474.5  " fill-rule="nonzero" fill="#797979" stroke="none" />
</svg>