<?xml version="1.0" encoding="utf-8"?>
<svg version="1.1" xmlns:xlink="http://www.w3.org/1999/xlink" width="12px" height="12px" viewBox="335 3761.5  12 12" xmlns="http://www.w3.org/2000/svg">
  <path d="M 341 3761.5  C 344.36 3761.5  347 3764.14  347 3767.5  C 347 3770.86  344.36 3773.5  341 3773.5  C 337.64 3773.5  335 3770.86  335 3767.5  C 335 3764.14  337.64 3761.5  341 3761.5  Z " fill-rule="nonzero" fill="#ffffff" stroke="none" />
  <path d="M 341 3762  C 344.08 3762  346.5 3764.42  346.5 3767.5  C 346.5 3770.58  344.08 3773  341 3773  C 337.92 3773  335.5 3770.58  335.5 3767.5  C 335.5 3764.42  337.92 3762  341 3762  Z " stroke-width="1" stroke="#797979" fill="none" />
  <path d="M 341 3770.5  C 339.32 3770.5  338 3769.18  338 3767.5  C 338 3765.82  339.32 3764.5  341 3764.5  C 342.68 3764.5  344 3765.82  344 3767.5  C 344 3769.18  342.68 3770.5  341 3770.5  " fill-rule="nonzero" fill="#797979" stroke="none" />
</svg>