<?xml version="1.0" encoding="utf-8"?>
<svg version="1.1" xmlns:xlink="http://www.w3.org/1999/xlink" width="12px" height="12px" viewBox="196 3867.5  12 12" xmlns="http://www.w3.org/2000/svg">
  <path d="M 202 3867.5  C 205.36 3867.5  208 3870.14  208 3873.5  C 208 3876.86  205.36 3879.5  202 3879.5  C 198.64 3879.5  196 3876.86  196 3873.5  C 196 3870.14  198.64 3867.5  202 3867.5  Z " fill-rule="nonzero" fill="#ffffff" stroke="none" />
  <path d="M 202 3868  C 205.08 3868  207.5 3870.42  207.5 3873.5  C 207.5 3876.58  205.08 3879  202 3879  C 198.92 3879  196.5 3876.58  196.5 3873.5  C 196.5 3870.42  198.92 3868  202 3868  Z " stroke-width="1" stroke="#797979" fill="none" />
  <path d="M 202 3876.5  C 200.32 3876.5  199 3875.18  199 3873.5  C 199 3871.82  200.32 3870.5  202 3870.5  C 203.68 3870.5  205 3871.82  205 3873.5  C 205 3875.18  203.68 3876.5  202 3876.5  " fill-rule="nonzero" fill="#797979" stroke="none" />
</svg>