<?xml version="1.0" encoding="utf-8"?>
<svg version="1.1" xmlns:xlink="http://www.w3.org/1999/xlink" width="12px" height="12px" viewBox="196 3906.5  12 12" xmlns="http://www.w3.org/2000/svg">
  <path d="M 202 3906.5  C 205.36 3906.5  208 3909.14  208 3912.5  C 208 3915.86  205.36 3918.5  202 3918.5  C 198.64 3918.5  196 3915.86  196 3912.5  C 196 3909.14  198.64 3906.5  202 3906.5  Z " fill-rule="nonzero" fill="#ffffff" stroke="none" />
  <path d="M 202 3907  C 205.08 3907  207.5 3909.42  207.5 3912.5  C 207.5 3915.58  205.08 3918  202 3918  C 198.92 3918  196.5 3915.58  196.5 3912.5  C 196.5 3909.42  198.92 3907  202 3907  Z " stroke-width="1" stroke="#797979" fill="none" />
  <path d="M 202 3915.5  C 200.32 3915.5  199 3914.18  199 3912.5  C 199 3910.82  200.32 3909.5  202 3909.5  C 203.68 3909.5  205 3910.82  205 3912.5  C 205 3914.18  203.68 3915.5  202 3915.5  " fill-rule="nonzero" fill="#797979" stroke="none" />
</svg>