<?xml version="1.0" encoding="utf-8"?>
<svg version="1.1" xmlns:xlink="http://www.w3.org/1999/xlink" width="43px" height="50px" xmlns="http://www.w3.org/2000/svg">
  <g transform="matrix(1 0 0 1 -298 -2751 )">
    <path d="M 14.3333333333333 10.7142857142857  L 17.9166666666667 10.7142857142857  L 17.9166666666667 7.14285714285715  L 14.3333333333333 7.14285714285715  L 14.3333333333333 10.7142857142857  Z M 17.9166666666667 14.2857142857143  L 21.5 14.2857142857143  L 21.5 10.7142857142857  L 17.9166666666667 10.7142857142857  L 17.9166666666667 14.2857142857143  Z M 14.3333333333333 17.8571428571429  L 17.9166666666667 17.8571428571429  L 17.9166666666667 14.2857142857143  L 14.3333333333333 14.2857142857143  L 14.3333333333333 17.8571428571429  Z M 17.9166666666667 21.4285714285714  L 21.5 21.4285714285714  L 21.5 17.8571428571429  L 17.9166666666667 17.8571428571429  L 17.9166666666667 21.4285714285714  Z M 32.3619791666667 1.89732142857143  L 41.0963541666667 10.6026785714286  C 41.6189236111111 11.1235119047619  42.0668402777778 11.8303571428571  42.4401041666667 12.7232142857143  C 42.8133680555556 13.6160714285714  43 14.4345238095238  43 15.1785714285714  L 43 47.3214285714286  C 43 48.0654761904762  42.7387152777778 48.6979166666667  42.2161458333333 49.21875  C 41.6935763888889 49.7395833333333  41.0590277777778 50  40.3125 50  L 2.6875 50  C 1.94097222222222 50  1.30642361111111 49.7395833333333  0.783854166666667 49.21875  C 0.261284722222222 48.6979166666667  0 48.0654761904762  0 47.3214285714286  L 0 2.67857142857143  C 0 1.93452380952381  0.261284722222222 1.30208333333333  0.783854166666667 0.78125  C 1.30642361111111 0.260416666666669  1.94097222222222 0  2.6875 0  L 27.7708333333333 0  C 28.5173611111111 0  29.3385416666667 0.186011904761907  30.234375 0.558035714285715  C 31.1302083333333 0.930059523809523  31.8394097222222 1.37648809523809  32.3619791666667 1.89732142857143  Z M 29.814453125 4.40848214285715  C 29.5904947916667 4.18526785714286  29.2078993055556 3.98065476190476  28 3.79464285714286  L 28 15  L 39.1927083333333 15  C 39.0060763888889 13.7462797619048  38.80078125 13.3649553571429  38.5768229166667 13.1417410714286  L 29.814453125 4.40848214285715  Z M 4 46  L 39 46  L 39 18  L 27.7708333333333 18  C 27.0243055555556 17.8571428571429  26.3897569444444 17.5967261904762  25.8671875 17.0758928571429  C 25.3446180555556 16.5550595238095  25.0833333333333 15.922619047619  25 15.1785714285714  L 25 3.57142857142857  L 21.5 3.57142857142857  L 21.5 7.14285714285715  L 17.9166666666667 7.14285714285715  L 17.9166666666667 4  L 4 4  L 4 46  Z M 21.2200520833333 25.3627232142857  C 21.5373263888889 25.6045386904762  21.751953125 25.9207589285714  21.8639322916667 26.3113839285714  L 24.859375 36.0491071428571  C 25.0086805555556 36.5513392857143  25.0833333333333 37.0349702380952  25.0833333333333 37.5  C 25.0833333333333 39.0438988095238  24.4067925347222 40.3227306547619  23.0537109375 41.3364955357143  C 21.7006293402778 42.3502604166667  19.98828125 42.8571428571429  17.9166666666667 42.8571428571429  C 15.8450520833333 42.8571428571429  14.1327039930556 42.3502604166667  12.7796223958333 41.3364955357143  C 11.4265407986111 40.3227306547619  10.75 39.0438988095238  10.75 37.5  C 10.75 37.0349702380952  10.8246527777778 36.5513392857143  10.9739583333333 36.0491071428571  C 11.3658854166667 34.8772321428571  12.4856770833333 31.1941964285714  14.3333333333333 25  L 14.3333333333333 21.4285714285714  L 17.9166666666667 21.4285714285714  L 17.9166666666667 25  L 20.1282552083333 25  C 20.5388454861111 25  20.9027777777778 25.1209077380952  21.2200520833333 25.3627232142857  Z M 15.3831380208333 38.7555803571429  C 16.0830078125 39.1090029761905  16.9275173611111 39.2857142857143  17.9166666666667 39.2857142857143  C 18.9058159722222 39.2857142857143  19.7503255208333 39.1090029761905  20.4501953125 38.7555803571429  C 21.1500651041667 38.4021577380952  21.5 37.983630952381  21.5 37.5  C 21.5 37.016369047619  21.1500651041667 36.5978422619048  20.4501953125 36.2444196428571  C 19.7503255208333 35.8909970238095  18.9058159722222 35.7142857142857  17.9166666666667 35.7142857142857  C 16.9275173611111 35.7142857142857  16.0830078125 35.8909970238095  15.3831380208333 36.2444196428571  C 14.6832682291667 36.5978422619048  14.3333333333333 37.016369047619  14.3333333333333 37.5  C 14.3333333333333 37.983630952381  14.6832682291667 38.4021577380952  15.3831380208333 38.7555803571429  Z " fill-rule="nonzero" fill="#aaaaaa" stroke="none" transform="matrix(1 0 0 1 298 2751 )" />
  </g>
</svg>