<?xml version="1.0" encoding="utf-8"?>
<svg version="1.1" xmlns:xlink="http://www.w3.org/1999/xlink" width="12px" height="12px" viewBox="181 3080.5  12 12" xmlns="http://www.w3.org/2000/svg">
  <path d="M 187 3080.5  C 190.36 3080.5  193 3083.14  193 3086.5  C 193 3089.86  190.36 3092.5  187 3092.5  C 183.64 3092.5  181 3089.86  181 3086.5  C 181 3083.14  183.64 3080.5  187 3080.5  Z " fill-rule="nonzero" fill="#ffffff" stroke="none" />
  <path d="M 187 3081  C 190.08 3081  192.5 3083.42  192.5 3086.5  C 192.5 3089.58  190.08 3092  187 3092  C 183.92 3092  181.5 3089.58  181.5 3086.5  C 181.5 3083.42  183.92 3081  187 3081  Z " stroke-width="1" stroke="#797979" fill="none" />
  <path d="M 187 3089.5  C 185.32 3089.5  184 3088.18  184 3086.5  C 184 3084.82  185.32 3083.5  187 3083.5  C 188.68 3083.5  190 3084.82  190 3086.5  C 190 3088.18  188.68 3089.5  187 3089.5  " fill-rule="nonzero" fill="#797979" stroke="none" />
</svg>