<?xml version="1.0" encoding="utf-8"?>
<svg version="1.1" xmlns:xlink="http://www.w3.org/1999/xlink" width="12px" height="12px" viewBox="181 3119.5  12 12" xmlns="http://www.w3.org/2000/svg">
  <path d="M 187 3119.5  C 190.36 3119.5  193 3122.14  193 3125.5  C 193 3128.86  190.36 3131.5  187 3131.5  C 183.64 3131.5  181 3128.86  181 3125.5  C 181 3122.14  183.64 3119.5  187 3119.5  Z " fill-rule="nonzero" fill="#ffffff" stroke="none" />
  <path d="M 187 3120  C 190.08 3120  192.5 3122.42  192.5 3125.5  C 192.5 3128.58  190.08 3131  187 3131  C 183.92 3131  181.5 3128.58  181.5 3125.5  C 181.5 3122.42  183.92 3120  187 3120  Z " stroke-width="1" stroke="#797979" fill="none" />
  <path d="M 187 3128.5  C 185.32 3128.5  184 3127.18  184 3125.5  C 184 3123.82  185.32 3122.5  187 3122.5  C 188.68 3122.5  190 3123.82  190 3125.5  C 190 3127.18  188.68 3128.5  187 3128.5  " fill-rule="nonzero" fill="#797979" stroke="none" />
</svg>