<?xml version="1.0" encoding="utf-8"?>
<svg version="1.1" xmlns:xlink="http://www.w3.org/1999/xlink" width="12px" height="12px" viewBox="681 673.5  12 12" xmlns="http://www.w3.org/2000/svg">
  <path d="M 687 673.5  C 690.36 673.5  693 676.14  693 679.5  C 693 682.86  690.36 685.5  687 685.5  C 683.64 685.5  681 682.86  681 679.5  C 681 676.14  683.64 673.5  687 673.5  Z " fill-rule="nonzero" fill="#ffffff" stroke="none" />
  <path d="M 687 674  C 690.08 674  692.5 676.42  692.5 679.5  C 692.5 682.58  690.08 685  687 685  C 683.92 685  681.5 682.58  681.5 679.5  C 681.5 676.42  683.92 674  687 674  Z " stroke-width="1" stroke="#797979" fill="none" />
  <path d="M 687 682.5  C 685.32 682.5  684 681.18  684 679.5  C 684 677.82  685.32 676.5  687 676.5  C 688.68 676.5  690 677.82  690 679.5  C 690 681.18  688.68 682.5  687 682.5  " fill-rule="nonzero" fill="#797979" stroke="none" />
</svg>