<?xml version="1.0" encoding="utf-8"?>
<svg version="1.1" xmlns:xlink="http://www.w3.org/1999/xlink" width="12px" height="12px" viewBox="307 578.5  12 12" xmlns="http://www.w3.org/2000/svg">
  <path d="M 313 578.5  C 316.36 578.5  319 581.14  319 584.5  C 319 587.86  316.36 590.5  313 590.5  C 309.64 590.5  307 587.86  307 584.5  C 307 581.14  309.64 578.5  313 578.5  Z " fill-rule="nonzero" fill="#ffffff" stroke="none" />
  <path d="M 313 579  C 316.08 579  318.5 581.42  318.5 584.5  C 318.5 587.58  316.08 590  313 590  C 309.92 590  307.5 587.58  307.5 584.5  C 307.5 581.42  309.92 579  313 579  Z " stroke-width="1" stroke="#797979" fill="none" />
  <path d="M 313 587.5  C 311.32 587.5  310 586.18  310 584.5  C 310 582.82  311.32 581.5  313 581.5  C 314.68 581.5  316 582.82  316 584.5  C 316 586.18  314.68 587.5  313 587.5  " fill-rule="nonzero" fill="#797979" stroke="none" />
</svg>