<?xml version="1.0" encoding="utf-8"?>
<svg version="1.1" xmlns:xlink="http://www.w3.org/1999/xlink" width="12px" height="12px" viewBox="207 578.5  12 12" xmlns="http://www.w3.org/2000/svg">
  <path d="M 213 578.5  C 216.36 578.5  219 581.14  219 584.5  C 219 587.86  216.36 590.5  213 590.5  C 209.64 590.5  207 587.86  207 584.5  C 207 581.14  209.64 578.5  213 578.5  Z " fill-rule="nonzero" fill="#ffffff" stroke="none" />
  <path d="M 213 579  C 216.08 579  218.5 581.42  218.5 584.5  C 218.5 587.58  216.08 590  213 590  C 209.92 590  207.5 587.58  207.5 584.5  C 207.5 581.42  209.92 579  213 579  Z " stroke-width="1" stroke="#797979" fill="none" />
  <path d="M 213 587.5  C 211.32 587.5  210 586.18  210 584.5  C 210 582.82  211.32 581.5  213 581.5  C 214.68 581.5  216 582.82  216 584.5  C 216 586.18  214.68 587.5  213 587.5  " fill-rule="nonzero" fill="#797979" stroke="none" />
</svg>