<?xml version="1.0" encoding="utf-8"?>
<svg version="1.1" xmlns:xlink="http://www.w3.org/1999/xlink" width="12px" height="12px" viewBox="307 613.5  12 12" xmlns="http://www.w3.org/2000/svg">
  <path d="M 313 613.5  C 316.36 613.5  319 616.14  319 619.5  C 319 622.86  316.36 625.5  313 625.5  C 309.64 625.5  307 622.86  307 619.5  C 307 616.14  309.64 613.5  313 613.5  Z " fill-rule="nonzero" fill="#ffffff" stroke="none" />
  <path d="M 313 614  C 316.08 614  318.5 616.42  318.5 619.5  C 318.5 622.58  316.08 625  313 625  C 309.92 625  307.5 622.58  307.5 619.5  C 307.5 616.42  309.92 614  313 614  Z " stroke-width="1" stroke="#797979" fill="none" />
  <path d="M 313 622.5  C 311.32 622.5  310 621.18  310 619.5  C 310 617.82  311.32 616.5  313 616.5  C 314.68 616.5  316 617.82  316 619.5  C 316 621.18  314.68 622.5  313 622.5  " fill-rule="nonzero" fill="#797979" stroke="none" />
</svg>