<?xml version="1.0" encoding="utf-8"?>
<svg version="1.1" xmlns:xlink="http://www.w3.org/1999/xlink" width="12px" height="12px" viewBox="537 612.5  12 12" xmlns="http://www.w3.org/2000/svg">
  <path d="M 543 612.5  C 546.36 612.5  549 615.14  549 618.5  C 549 621.86  546.36 624.5  543 624.5  C 539.64 624.5  537 621.86  537 618.5  C 537 615.14  539.64 612.5  543 612.5  Z " fill-rule="nonzero" fill="#ffffff" stroke="none" />
  <path d="M 543 613  C 546.08 613  548.5 615.42  548.5 618.5  C 548.5 621.58  546.08 624  543 624  C 539.92 624  537.5 621.58  537.5 618.5  C 537.5 615.42  539.92 613  543 613  Z " stroke-width="1" stroke="#797979" fill="none" />
  <path d="M 543 621.5  C 541.32 621.5  540 620.18  540 618.5  C 540 616.82  541.32 615.5  543 615.5  C 544.68 615.5  546 616.82  546 618.5  C 546 620.18  544.68 621.5  543 621.5  " fill-rule="nonzero" fill="#797979" stroke="none" />
</svg>