<?xml version="1.0" encoding="utf-8"?>
<svg version="1.1" xmlns:xlink="http://www.w3.org/1999/xlink" width="12px" height="12px" viewBox="492 999.5  12 12" xmlns="http://www.w3.org/2000/svg">
  <path d="M 498 999.5  C 501.36 999.5  504 1002.14  504 1005.5  C 504 1008.86  501.36 1011.5  498 1011.5  C 494.64 1011.5  492 1008.86  492 1005.5  C 492 1002.14  494.64 999.5  498 999.5  Z " fill-rule="nonzero" fill="#ffffff" stroke="none" />
  <path d="M 498 1000  C 501.08 1000  503.5 1002.42  503.5 1005.5  C 503.5 1008.58  501.08 1011  498 1011  C 494.92 1011  492.5 1008.58  492.5 1005.5  C 492.5 1002.42  494.92 1000  498 1000  Z " stroke-width="1" stroke="#797979" fill="none" />
  <path d="M 498 1008.5  C 496.32 1008.5  495 1007.18  495 1005.5  C 495 1003.82  496.32 1002.5  498 1002.5  C 499.68 1002.5  501 1003.82  501 1005.5  C 501 1007.18  499.68 1008.5  498 1008.5  " fill-rule="nonzero" fill="#797979" stroke="none" />
</svg>