<?xml version="1.0" encoding="utf-8"?>
<svg version="1.1" xmlns:xlink="http://www.w3.org/1999/xlink" width="12px" height="12px" viewBox="369 999.5  12 12" xmlns="http://www.w3.org/2000/svg">
  <path d="M 375 999.5  C 378.36 999.5  381 1002.14  381 1005.5  C 381 1008.86  378.36 1011.5  375 1011.5  C 371.64 1011.5  369 1008.86  369 1005.5  C 369 1002.14  371.64 999.5  375 999.5  Z " fill-rule="nonzero" fill="#ffffff" stroke="none" />
  <path d="M 375 1000  C 378.08 1000  380.5 1002.42  380.5 1005.5  C 380.5 1008.58  378.08 1011  375 1011  C 371.92 1011  369.5 1008.58  369.5 1005.5  C 369.5 1002.42  371.92 1000  375 1000  Z " stroke-width="1" stroke="#797979" fill="none" />
  <path d="M 375 1008.5  C 373.32 1008.5  372 1007.18  372 1005.5  C 372 1003.82  373.32 1002.5  375 1002.5  C 376.68 1002.5  378 1003.82  378 1005.5  C 378 1007.18  376.68 1008.5  375 1008.5  " fill-rule="nonzero" fill="#797979" stroke="none" />
</svg>