<?xml version="1.0" encoding="utf-8"?>
<svg version="1.1" xmlns:xlink="http://www.w3.org/1999/xlink" width="12px" height="12px" viewBox="592 1048.5  12 12" xmlns="http://www.w3.org/2000/svg">
  <path d="M 598 1048.5  C 601.36 1048.5  604 1051.14  604 1054.5  C 604 1057.86  601.36 1060.5  598 1060.5  C 594.64 1060.5  592 1057.86  592 1054.5  C 592 1051.14  594.64 1048.5  598 1048.5  Z " fill-rule="nonzero" fill="#ffffff" stroke="none" />
  <path d="M 598 1049  C 601.08 1049  603.5 1051.42  603.5 1054.5  C 603.5 1057.58  601.08 1060  598 1060  C 594.92 1060  592.5 1057.58  592.5 1054.5  C 592.5 1051.42  594.92 1049  598 1049  Z " stroke-width="1" stroke="#797979" fill="none" />
  <path d="M 598 1057.5  C 596.32 1057.5  595 1056.18  595 1054.5  C 595 1052.82  596.32 1051.5  598 1051.5  C 599.68 1051.5  601 1052.82  601 1054.5  C 601 1056.18  599.68 1057.5  598 1057.5  " fill-rule="nonzero" fill="#797979" stroke="none" />
</svg>