<?xml version="1.0" encoding="utf-8"?>
<svg version="1.1" xmlns:xlink="http://www.w3.org/1999/xlink" width="12px" height="12px" viewBox="190 1169.5  12 12" xmlns="http://www.w3.org/2000/svg">
  <path d="M 196 1169.5  C 199.36 1169.5  202 1172.14  202 1175.5  C 202 1178.86  199.36 1181.5  196 1181.5  C 192.64 1181.5  190 1178.86  190 1175.5  C 190 1172.14  192.64 1169.5  196 1169.5  Z " fill-rule="nonzero" fill="#ffffff" stroke="none" />
  <path d="M 196 1170  C 199.08 1170  201.5 1172.42  201.5 1175.5  C 201.5 1178.58  199.08 1181  196 1181  C 192.92 1181  190.5 1178.58  190.5 1175.5  C 190.5 1172.42  192.92 1170  196 1170  Z " stroke-width="1" stroke="#797979" fill="none" />
  <path d="M 196 1178.5  C 194.32 1178.5  193 1177.18  193 1175.5  C 193 1173.82  194.32 1172.5  196 1172.5  C 197.68 1172.5  199 1173.82  199 1175.5  C 199 1177.18  197.68 1178.5  196 1178.5  " fill-rule="nonzero" fill="#797979" stroke="none" />
</svg>