<?xml version="1.0" encoding="utf-8"?>
<svg version="1.1" xmlns:xlink="http://www.w3.org/1999/xlink" width="12px" height="12px" viewBox="313 1169.5  12 12" xmlns="http://www.w3.org/2000/svg">
  <path d="M 319 1169.5  C 322.36 1169.5  325 1172.14  325 1175.5  C 325 1178.86  322.36 1181.5  319 1181.5  C 315.64 1181.5  313 1178.86  313 1175.5  C 313 1172.14  315.64 1169.5  319 1169.5  Z " fill-rule="nonzero" fill="#ffffff" stroke="none" />
  <path d="M 319 1170  C 322.08 1170  324.5 1172.42  324.5 1175.5  C 324.5 1178.58  322.08 1181  319 1181  C 315.92 1181  313.5 1178.58  313.5 1175.5  C 313.5 1172.42  315.92 1170  319 1170  Z " stroke-width="1" stroke="#797979" fill="none" />
  <path d="M 319 1178.5  C 317.32 1178.5  316 1177.18  316 1175.5  C 316 1173.82  317.32 1172.5  319 1172.5  C 320.68 1172.5  322 1173.82  322 1175.5  C 322 1177.18  320.68 1178.5  319 1178.5  " fill-rule="nonzero" fill="#797979" stroke="none" />
</svg>