<?xml version="1.0" encoding="utf-8"?>
<svg version="1.1" xmlns:xlink="http://www.w3.org/1999/xlink" width="12px" height="12px" viewBox="277 818.5  12 12" xmlns="http://www.w3.org/2000/svg">
  <path d="M 283 818.5  C 286.36 818.5  289 821.14  289 824.5  C 289 827.86  286.36 830.5  283 830.5  C 279.64 830.5  277 827.86  277 824.5  C 277 821.14  279.64 818.5  283 818.5  Z " fill-rule="nonzero" fill="#ffffff" stroke="none" />
  <path d="M 283 819  C 286.08 819  288.5 821.42  288.5 824.5  C 288.5 827.58  286.08 830  283 830  C 279.92 830  277.5 827.58  277.5 824.5  C 277.5 821.42  279.92 819  283 819  Z " stroke-width="1" stroke="#797979" fill="none" />
  <path d="M 283 827.5  C 281.32 827.5  280 826.18  280 824.5  C 280 822.82  281.32 821.5  283 821.5  C 284.68 821.5  286 822.82  286 824.5  C 286 826.18  284.68 827.5  283 827.5  " fill-rule="nonzero" fill="#797979" stroke="none" />
</svg>