<?xml version="1.0" encoding="utf-8"?>
<svg version="1.1" xmlns:xlink="http://www.w3.org/1999/xlink" width="12px" height="12px" viewBox="177 818.5  12 12" xmlns="http://www.w3.org/2000/svg">
  <path d="M 183 818.5  C 186.36 818.5  189 821.14  189 824.5  C 189 827.86  186.36 830.5  183 830.5  C 179.64 830.5  177 827.86  177 824.5  C 177 821.14  179.64 818.5  183 818.5  Z " fill-rule="nonzero" fill="#ffffff" stroke="none" />
  <path d="M 183 819  C 186.08 819  188.5 821.42  188.5 824.5  C 188.5 827.58  186.08 830  183 830  C 179.92 830  177.5 827.58  177.5 824.5  C 177.5 821.42  179.92 819  183 819  Z " stroke-width="1" stroke="#797979" fill="none" />
  <path d="M 183 827.5  C 181.32 827.5  180 826.18  180 824.5  C 180 822.82  181.32 821.5  183 821.5  C 184.68 821.5  186 822.82  186 824.5  C 186 826.18  184.68 827.5  183 827.5  " fill-rule="nonzero" fill="#797979" stroke="none" />
</svg>