<?xml version="1.0" encoding="utf-8"?>
<svg version="1.1" xmlns:xlink="http://www.w3.org/1999/xlink" width="12px" height="12px" viewBox="381 818.5  12 12" xmlns="http://www.w3.org/2000/svg">
  <path d="M 387 818.5  C 390.36 818.5  393 821.14  393 824.5  C 393 827.86  390.36 830.5  387 830.5  C 383.64 830.5  381 827.86  381 824.5  C 381 821.14  383.64 818.5  387 818.5  Z " fill-rule="nonzero" fill="#ffffff" stroke="none" />
  <path d="M 387 819  C 390.08 819  392.5 821.42  392.5 824.5  C 392.5 827.58  390.08 830  387 830  C 383.92 830  381.5 827.58  381.5 824.5  C 381.5 821.42  383.92 819  387 819  Z " stroke-width="1" stroke="#797979" fill="none" />
  <path d="M 387 827.5  C 385.32 827.5  384 826.18  384 824.5  C 384 822.82  385.32 821.5  387 821.5  C 388.68 821.5  390 822.82  390 824.5  C 390 826.18  388.68 827.5  387 827.5  " fill-rule="nonzero" fill="#797979" stroke="none" />
</svg>