<?xml version="1.0" encoding="utf-8"?>
<svg version="1.1" xmlns:xlink="http://www.w3.org/1999/xlink" width="12px" height="12px" viewBox="198 949.5  12 12" xmlns="http://www.w3.org/2000/svg">
  <path d="M 204 949.5  C 207.36 949.5  210 952.14  210 955.5  C 210 958.86  207.36 961.5  204 961.5  C 200.64 961.5  198 958.86  198 955.5  C 198 952.14  200.64 949.5  204 949.5  Z " fill-rule="nonzero" fill="#ffffff" stroke="none" />
  <path d="M 204 950  C 207.08 950  209.5 952.42  209.5 955.5  C 209.5 958.58  207.08 961  204 961  C 200.92 961  198.5 958.58  198.5 955.5  C 198.5 952.42  200.92 950  204 950  Z " stroke-width="1" stroke="#797979" fill="none" />
  <path d="M 204 958.5  C 202.32 958.5  201 957.18  201 955.5  C 201 953.82  202.32 952.5  204 952.5  C 205.68 952.5  207 953.82  207 955.5  C 207 957.18  205.68 958.5  204 958.5  " fill-rule="nonzero" fill="#797979" stroke="none" />
</svg>