<?xml version="1.0" encoding="utf-8"?>
<svg version="1.1" xmlns:xlink="http://www.w3.org/1999/xlink" width="300px" height="170px" xmlns="http://www.w3.org/2000/svg">
  <g transform="matrix(1 0 0 1 -971 -744 )">
    <path d="M 971 744  L 1271 744  L 1271 914  L 971 914  L 971 744  " fill-rule="nonzero" fill="#cccccc" stroke="none" />
    <path d="M 983 756  L 1259 756  L 1259 902  L 983 902  L 983 756  " fill-rule="nonzero" fill="#ffffff" stroke="none" />
    <path d="M 1139.75 795  C 1132.61 795  1127 789.39  1127 782.25  C 1127 775.11  1132.61 769.5  1139.75 769.5  C 1146.89 769.5  1152.5 775.11  1152.5 782.25  C 1152.5 789.39  1146.89 795  1139.75 795  " fill-rule="nonzero" fill="#cccccc" stroke="none" />
    <path d="M 988 898  L 988 822.65  L 1054.75 788.4  L 1148.2 851.42  L 1201.6 808.95  L 1255 851.42  L 1255 898  L 988 898  " fill-rule="nonzero" fill="#169bd5" stroke="none" />
  </g>
</svg>