<?xml version="1.0" encoding="utf-8"?>
<svg version="1.1" xmlns:xlink="http://www.w3.org/1999/xlink" width="300px" height="170px" xmlns="http://www.w3.org/2000/svg">
  <g transform="matrix(1 0 0 1 -1039 -794 )">
    <path d="M 1039 794  L 1339 794  L 1339 964  L 1039 964  L 1039 794  " fill-rule="nonzero" fill="#cccccc" stroke="none" />
    <path d="M 1051 806  L 1327 806  L 1327 952  L 1051 952  L 1051 806  " fill-rule="nonzero" fill="#ffffff" stroke="none" />
    <path d="M 1207.75 845  C 1200.61 845  1195 839.39  1195 832.25  C 1195 825.11  1200.61 819.5  1207.75 819.5  C 1214.89 819.5  1220.5 825.11  1220.5 832.25  C 1220.5 839.39  1214.89 845  1207.75 845  " fill-rule="nonzero" fill="#cccccc" stroke="none" />
    <path d="M 1056 948  L 1056 872.65  L 1122.75 838.4  L 1216.2 901.42  L 1269.6 858.95  L 1323 901.42  L 1323 948  L 1056 948  " fill-rule="nonzero" fill="#169bd5" stroke="none" />
  </g>
</svg>