<?xml version="1.0" encoding="utf-8"?>
<svg version="1.1" xmlns:xlink="http://www.w3.org/1999/xlink" width="231px" height="56px" xmlns="http://www.w3.org/2000/svg">
  <g transform="matrix(1 0 0 1 -1005 -1221 )">
    <path d="M 1005 1221  L 1236 1221  L 1236 1277  L 1005 1277  L 1005 1221  " fill-rule="nonzero" fill="#cccccc" stroke="none" />
    <path d="M 1009 1225  L 1232 1225  L 1232 1273  L 1009 1273  L 1009 1225  " fill-rule="nonzero" fill="#ffffff" stroke="none" />
    <path d="M 1129.32 1237.8  C 1126.968 1237.8  1125.12 1235.952  1125.12 1233.6  C 1125.12 1231.248  1126.968 1229.4  1129.32 1229.4  C 1131.672 1229.4  1133.52 1231.248  1133.52 1233.6  C 1133.52 1235.952  1131.672 1237.8  1129.32 1237.8  " fill-rule="nonzero" fill="#cccccc" stroke="none" />
    <path d="M 1011 1272  L 1011 1247.25  L 1066 1236  L 1143 1265.45454545455  L 1187 1242.75  L 1231 1265.45454545455  L 1231 1272  L 1011 1272  " fill-rule="nonzero" fill="#169bd5" stroke="none" />
  </g>
</svg>