<?xml version="1.0" encoding="utf-8"?>
<svg version="1.1" xmlns:xlink="http://www.w3.org/1999/xlink" width="38px" height="23px" xmlns="http://www.w3.org/2000/svg">
  <g>
    <path d="M 0.9462890625 15.965234375  C 0.3154296875 14.545703125  0 13.0572916666667  0 11.5  C 0 9.94270833333333  0.3154296875 8.454296875  0.9462890625 7.034765625  C 1.5771484375 5.615234375  2.42138671875 4.393359375  3.47900390625 3.369140625  C 4.53662109375 2.344921875  5.79833984375 1.52734375  7.26416015625 0.916406249999999  C 8.72998046875 0.305468750000001  10.2669270833333 0  11.875 0  L 26.125 0  C 27.7330729166667 0  29.27001953125 0.305468750000001  30.73583984375 0.916406249999999  C 32.20166015625 1.52734375  33.46337890625 2.344921875  34.52099609375 3.369140625  C 35.57861328125 4.393359375  36.4228515625 5.615234375  37.0537109375 7.034765625  C 37.6845703125 8.454296875  38 9.94270833333333  38 11.5  C 38 13.0572916666667  37.6845703125 14.545703125  37.0537109375 15.965234375  C 36.4228515625 17.384765625  35.57861328125 18.606640625  34.52099609375 19.630859375  C 33.46337890625 20.655078125  32.20166015625 21.47265625  30.73583984375 22.08359375  C 29.27001953125 22.69453125  27.7330729166667 23  26.125 23  L 11.875 23  C 10.2669270833333 23  8.72998046875 22.69453125  7.26416015625 22.08359375  C 5.79833984375 21.47265625  4.53662109375 20.655078125  3.47900390625 19.630859375  C 2.42138671875 18.606640625  1.5771484375 17.384765625  0.9462890625 15.965234375  Z M 22.44189453125 19.972265625  C 23.61083984375 20.457421875  24.8385416666667 20.7  26.125 20.7  C 27.4114583333333 20.7  28.63916015625 20.457421875  29.80810546875 19.972265625  C 30.97705078125 19.487109375  31.98828125 18.83125  32.841796875 18.0046875  C 33.6953125 17.178125  34.37255859375 16.198828125  34.87353515625 15.066796875  C 35.37451171875 13.934765625  35.625 12.7458333333333  35.625 11.5  C 35.625 10.2541666666667  35.37451171875 9.065234375  34.87353515625 7.933203125  C 34.37255859375 6.801171875  33.6953125 5.821875  32.841796875 4.9953125  C 31.98828125 4.16875  30.97705078125 3.512890625  29.80810546875 3.027734375  C 28.63916015625 2.542578125  27.4114583333333 2.3  26.125 2.3  C 24.8385416666667 2.3  23.61083984375 2.542578125  22.44189453125 3.027734375  C 21.27294921875 3.512890625  20.26171875 4.16875  19.408203125 4.9953125  C 18.5546875 5.821875  17.87744140625 6.801171875  17.37646484375 7.933203125  C 16.87548828125 9.065234375  16.625 10.2541666666667  16.625 11.5  C 16.625 12.7458333333333  16.87548828125 13.934765625  17.37646484375 15.066796875  C 17.87744140625 16.198828125  18.5546875 17.178125  19.408203125 18.0046875  C 20.26171875 18.83125  21.27294921875 19.487109375  22.44189453125 19.972265625  Z " fill-rule="nonzero" fill="#70b603" stroke="none" />
  </g>
</svg>