<?xml version="1.0" encoding="utf-8"?>
<svg version="1.1" xmlns:xlink="http://www.w3.org/1999/xlink" width="38px" height="23px" xmlns="http://www.w3.org/2000/svg">
  <g>
    <path d="M 20.62353515625 15.066796875  C 21.12451171875 13.934765625  21.375 12.7458333333333  21.375 11.5  C 21.375 10.2541666666667  21.12451171875 9.065234375  20.62353515625 7.933203125  C 20.12255859375 6.801171875  19.4453125 5.821875  18.591796875 4.9953125  C 17.73828125 4.16875  16.72705078125 3.512890625  15.55810546875 3.027734375  C 14.38916015625 2.542578125  13.1614583333333 2.3  11.875 2.3  C 10.5885416666667 2.3  9.36083984375 2.542578125  8.19189453125 3.027734375  C 7.02294921875 3.512890625  6.01171875 4.16875  5.158203125 4.9953125  C 4.3046875 5.821875  3.62744140625 6.801171875  3.12646484375 7.933203125  C 2.62548828125 9.065234375  2.375 10.2541666666667  2.375 11.5  C 2.375 12.7458333333333  2.62548828125 13.934765625  3.12646484375 15.066796875  C 3.62744140625 16.198828125  4.3046875 17.178125  5.158203125 18.0046875  C 6.01171875 18.83125  7.02294921875 19.487109375  8.19189453125 19.972265625  C 9.36083984375 20.457421875  10.5885416666667 20.7  11.875 20.7  C 13.1614583333333 20.7  14.38916015625 20.457421875  15.55810546875 19.972265625  C 16.72705078125 19.487109375  17.73828125 18.83125  18.591796875 18.0046875  C 19.4453125 17.178125  20.12255859375 16.198828125  20.62353515625 15.066796875  Z M 34.87353515625 15.066796875  C 35.37451171875 13.934765625  35.625 12.7458333333333  35.625 11.5  C 35.625 10.2541666666667  35.37451171875 9.065234375  34.87353515625 7.933203125  C 34.37255859375 6.801171875  33.6953125 5.821875  32.841796875 4.9953125  C 31.98828125 4.16875  30.97705078125 3.512890625  29.80810546875 3.027734375  C 28.63916015625 2.542578125  27.4114583333333 2.3  26.125 2.3  L 18.962890625 2.3  C 20.4348958333333 3.378125  21.6007486979167 4.71979166666666  22.46044921875 6.325  C 23.3201497395833 7.93020833333333  23.75 9.65520833333333  23.75 11.5  C 23.75 13.3447916666667  23.3201497395833 15.0697916666667  22.46044921875 16.675  C 21.6007486979167 18.2802083333333  20.4348958333333 19.621875  18.962890625 20.7  L 26.125 20.7  C 27.4114583333333 20.7  28.63916015625 20.457421875  29.80810546875 19.972265625  C 30.97705078125 19.487109375  31.98828125 18.83125  32.841796875 18.0046875  C 33.6953125 17.178125  34.37255859375 16.198828125  34.87353515625 15.066796875  Z M 37.0537109375 7.034765625  C 37.6845703125 8.454296875  38 9.94270833333333  38 11.5  C 38 13.0572916666667  37.6845703125 14.545703125  37.0537109375 15.965234375  C 36.4228515625 17.384765625  35.57861328125 18.606640625  34.52099609375 19.630859375  C 33.46337890625 20.655078125  32.20166015625 21.47265625  30.73583984375 22.08359375  C 29.27001953125 22.69453125  27.7330729166667 23  26.125 23  L 11.875 23  C 10.2669270833333 23  8.72998046875 22.69453125  7.26416015625 22.08359375  C 5.79833984375 21.47265625  4.53662109375 20.655078125  3.47900390625 19.630859375  C 2.42138671875 18.606640625  1.5771484375 17.384765625  0.9462890625 15.965234375  C 0.3154296875 14.545703125  0 13.0572916666667  0 11.5  C 0 9.94270833333333  0.3154296875 8.454296875  0.9462890625 7.034765625  C 1.5771484375 5.615234375  2.42138671875 4.393359375  3.47900390625 3.369140625  C 4.53662109375 2.344921875  5.79833984375 1.52734375  7.26416015625 0.916406249999999  C 8.72998046875 0.305468750000001  10.2669270833333 0  11.875 0  L 26.125 0  C 27.7330729166667 0  29.27001953125 0.305468750000001  30.73583984375 0.916406249999999  C 32.20166015625 1.52734375  33.46337890625 2.344921875  34.52099609375 3.369140625  C 35.57861328125 4.393359375  36.4228515625 5.615234375  37.0537109375 7.034765625  Z " fill-rule="nonzero" fill="#70b603" stroke="none" />
  </g>
</svg>