<?xml version="1.0" encoding="utf-8"?>
<svg version="1.1" xmlns:xlink="http://www.w3.org/1999/xlink" width="12px" height="12px" viewBox="1433 943  12 12" xmlns="http://www.w3.org/2000/svg">
  <path d="M 1439 943  C 1442.36 943  1445 945.64  1445 949  C 1445 952.36  1442.36 955  1439 955  C 1435.64 955  1433 952.36  1433 949  C 1433 945.64  1435.64 943  1439 943  Z " fill-rule="nonzero" fill="#ffffff" stroke="none" />
  <path d="M 1439 943.5  C 1442.08 943.5  1444.5 945.92  1444.5 949  C 1444.5 952.08  1442.08 954.5  1439 954.5  C 1435.92 954.5  1433.5 952.08  1433.5 949  C 1433.5 945.92  1435.92 943.5  1439 943.5  Z " stroke-width="1" stroke="#797979" fill="none" />
  <path d="M 1439 952  C 1437.32 952  1436 950.68  1436 949  C 1436 947.32  1437.32 946  1439 946  C 1440.68 946  1442 947.32  1442 949  C 1442 950.68  1440.68 952  1439 952  " fill-rule="nonzero" fill="#797979" stroke="none" />
</svg>