<?xml version="1.0" encoding="utf-8"?>
<svg version="1.1" xmlns:xlink="http://www.w3.org/1999/xlink" width="12px" height="12px" viewBox="1533 943  12 12" xmlns="http://www.w3.org/2000/svg">
  <path d="M 1539 943  C 1542.36 943  1545 945.64  1545 949  C 1545 952.36  1542.36 955  1539 955  C 1535.64 955  1533 952.36  1533 949  C 1533 945.64  1535.64 943  1539 943  Z " fill-rule="nonzero" fill="#ffffff" stroke="none" />
  <path d="M 1539 943.5  C 1542.08 943.5  1544.5 945.92  1544.5 949  C 1544.5 952.08  1542.08 954.5  1539 954.5  C 1535.92 954.5  1533.5 952.08  1533.5 949  C 1533.5 945.92  1535.92 943.5  1539 943.5  Z " stroke-width="1" stroke="#797979" fill="none" />
  <path d="M 1539 952  C 1537.32 952  1536 950.68  1536 949  C 1536 947.32  1537.32 946  1539 946  C 1540.68 946  1542 947.32  1542 949  C 1542 950.68  1540.68 952  1539 952  " fill-rule="nonzero" fill="#797979" stroke="none" />
</svg>