<?xml version="1.0" encoding="utf-8"?>
<svg version="1.1" xmlns:xlink="http://www.w3.org/1999/xlink" width="92px" height="27px" xmlns="http://www.w3.org/2000/svg">
  <defs>
    <mask fill="white" id="clip38">
      <path d="M 0 22  L 0 5  C 0 2.19999999999999  2.20000000000005 0  5 0  L 49.2222222222222 0  L 87 0  C 89.8 0  92 2.19999999999999  92 5  L 92 22  C 92 24.8  89.8 27  87 27  L 56.1666666666667 27  L 5 27  C 2.20000000000005 27  0 24.8  0 22  Z " fill-rule="evenodd" />
    </mask>
  </defs>
  <g transform="matrix(1 0 0 1 -998 -181 )">
    <path d="M 0 22  L 0 5  C 0 2.19999999999999  2.20000000000005 0  5 0  L 49.2222222222222 0  L 87 0  C 89.8 0  92 2.19999999999999  92 5  L 92 22  C 92 24.8  89.8 27  87 27  L 56.1666666666667 27  L 5 27  C 2.20000000000005 27  0 24.8  0 22  Z " fill-rule="nonzero" fill="#ffffff" stroke="none" transform="matrix(1 0 0 1 998 181 )" />
    <path d="M 0 22  L 0 5  C 0 2.19999999999999  2.20000000000005 0  5 0  L 49.2222222222222 0  L 87 0  C 89.8 0  92 2.19999999999999  92 5  L 92 22  C 92 24.8  89.8 27  87 27  L 56.1666666666667 27  L 5 27  C 2.20000000000005 27  0 24.8  0 22  Z " stroke-width="2" stroke="#797979" fill="none" transform="matrix(1 0 0 1 998 181 )" mask="url(#clip38)" />
  </g>
</svg>